<?xml version="1.0" encoding="utf-8"?>
<!-- Generator: Adobe Illustrator 19.1.0, SVG Export Plug-In . SVG Version: 6.00 Build 0)  -->
<!DOCTYPE svg PUBLIC "-//W3C//DTD SVG 1.1//EN" "http://www.w3.org/Graphics/SVG/1.1/DTD/svg11.dtd">
<svg version="1.1" id="Layer_1" xmlns="http://www.w3.org/2000/svg" xmlns:xlink="http://www.w3.org/1999/xlink" x="0px" y="0px"
	 viewBox="77 11 304.5 80" style="enable-background:new 77 11 304.5 80;" xml:space="preserve">
<style type="text/css">
	.st0{fill:#FFFFFF;}
</style>
<path id="XMLID_154_" class="st0" d="M98.6,39.4c-0.4,0-0.8-0.4-0.8-0.8v-4.1c0-0.4,0.4-0.8,0.8-0.8h11.3c0.4,0,0.8,0.4,0.8,0.8
	v14.1c0,0.4-0.4,0.8-0.8,0.8h-3.8c-0.4,0-0.8-0.4-0.8-0.8v-1c0-0.2-0.3-0.3-0.4-0.1c-1.4,1.6-3.9,2.5-6.4,2.5
	c-7.8,0-14.3-6.3-14.3-14s6.5-14,14.3-14c4.3,0,8.3,2,10.9,5c0.3,0.3,0.2,0.9-0.1,1.1l-4.2,2.9c-0.4,0.3-0.9,0.2-1.3-0.1
	c-1.3-1.3-3.2-2.1-5.2-2.1c-4.1,0-7.3,3.2-7.3,7.3s3.2,7.3,7.3,7.3c2.3,0,4.3-1.1,5.6-2.8c0.1-0.1,0.2-0.4,0.2-0.6v-0.3
	c0-0.2-0.2-0.3-0.3-0.3H98.6z"/>
<path id="XMLID_156_" class="st0" d="M114.3,23.3c0-0.4,0.4-0.8,0.8-0.8h5.3c0.4,0,0.8,0.4,0.8,0.8v25.3c0,0.4-0.4,0.8-0.8,0.8h-5.3
	c-0.4,0-0.8-0.4-0.8-0.8V23.3z"/>
<path id="XMLID_158_" class="st0" d="M126.2,49.4c-0.4,0-0.8-0.4-0.8-0.8V23.3c0-0.4,0.4-0.8,0.8-0.8h18.3c0.4,0,0.8,0.4,0.8,0.8v5
	c0,0.4-0.4,0.8-0.8,0.8h-11.6c-0.4,0-0.7,0.3-0.7,0.7v3.4c0,0.4,0.3,0.7,0.7,0.7h9.5c0.4,0,0.8,0.4,0.8,0.8v4.6
	c0,0.4-0.4,0.8-0.8,0.8h-9.5c-0.4,0-0.7,0.3-0.7,0.7v7.7c0,0.4-0.4,0.8-0.8,0.8L126.2,49.4C126.2,49.3,126.2,49.4,126.2,49.4z"/>
<path id="XMLID_160_" class="st0" d="M149.9,29.1c-0.4,0-0.8-0.4-0.8-0.8v-5c0-0.4,0.4-0.8,0.8-0.8h22c0.4,0,0.8,0.4,0.8,0.8v5
	c0,0.4-0.4,0.8-0.8,0.8H165c-0.4,0-0.7,0.3-0.7,0.7v18.7c0,0.4-0.4,0.8-0.8,0.8h-5.3c-0.4,0-0.8-0.4-0.8-0.8V29.8
	c0-0.4-0.3-0.7-0.7-0.7H149.9z"/>
<g id="XMLID_125_">
	<path id="XMLID_138_" class="st0" d="M231.6,39.4c-0.4,0-0.8-0.4-0.8-0.8v-4.1c0-0.4,0.4-0.8,0.8-0.8h11.3c0.4,0,0.8,0.4,0.8,0.8
		v14.1c0,0.4-0.4,0.8-0.8,0.8h-3.8c-0.4,0-0.8-0.4-0.8-0.8v-1c0-0.2-0.3-0.3-0.4-0.1c-1.4,1.6-3.9,2.5-6.4,2.5
		c-7.8,0-14.3-6.3-14.3-14s6.5-14,14.3-14c4.3,0,8.3,2,10.9,5c0.3,0.3,0.2,0.9-0.1,1.1l-4.2,2.9c-0.4,0.3-0.9,0.2-1.3-0.1
		c-1.3-1.3-3.2-2.1-5.2-2.1c-4.1,0-7.3,3.2-7.3,7.3s3.2,7.3,7.3,7.3c2.3,0,4.3-1.1,5.6-2.8c0.1-0.1,0.2-0.4,0.2-0.6v-0.3
		c0-0.2-0.2-0.3-0.3-0.3H231.6z"/>
	<path id="XMLID_142_" class="st0" d="M247.3,23.3c0-0.4,0.4-0.8,0.8-0.8h12.3c6.9,0,10.1,4.5,10.1,9.8c0,3.6-1.5,6.9-4.7,8.6
		c-0.3,0.2-0.4,0.6-0.2,0.9l5,6.9c0.2,0.3,0,0.7-0.3,0.7h-6.7c-0.5,0-1-0.3-1.3-0.7l-4.2-6c-0.2-0.3-0.7-0.6-1.1-0.6h-2.1
		c-0.4,0-0.7,0.3-0.7,0.7v5.7c0,0.4-0.4,0.8-0.8,0.8h-5.2c-0.4,0-0.8-0.4-0.8-0.8L247.3,23.3L247.3,23.3z M260.1,28.7h-5.2
		c-0.4,0-0.7,0.3-0.7,0.7v5.8c0,0.4,0.3,0.7,0.7,0.7h5.2c2.8,0,3.8-1.7,3.8-3.6C263.9,30.3,262.8,28.7,260.1,28.7z"/>
	<path id="XMLID_148_" class="st0" d="M272.5,35.9c0-7.7,6.5-14,14.3-14c7.9,0,14.3,6.3,14.3,14s-6.4,14-14.3,14
		C279,49.9,272.5,43.6,272.5,35.9z M279.4,35.9c0,4.1,3.3,7.3,7.3,7.3c4.1,0,7.3-3.2,7.3-7.3c0-4.1-3.2-7.3-7.3-7.3
		C282.7,28.6,279.4,31.8,279.4,35.9z"/>
	<path id="XMLID_151_" class="st0" d="M316.2,48.6c-0.1,0.5-0.6,0.8-1.1,0.8h-5.5c-0.5,0-0.9-0.3-1-0.8l-7.2-25.4
		c-0.1-0.4,0.2-0.8,0.6-0.8h5.7c0.5,0,0.9,0.3,1,0.8l4,14.6c0,0.2,0.3,0.2,0.4,0l4.6-14.6c0.1-0.5,0.6-0.8,1.1-0.8h4.5
		c0.5,0,0.9,0.3,1.1,0.8l4.6,14.6c0.1,0.2,0.3,0.2,0.4,0l4-14.6c0.1-0.4,0.6-0.8,1-0.8h5.7c0.4,0,0.7,0.4,0.6,0.8l-7.1,25.4
		c-0.1,0.4-0.6,0.8-1,0.8h-5.5c-0.5,0-0.9-0.3-1.1-0.8l-4.7-14.2c-0.1-0.2-0.3-0.2-0.4,0L316.2,48.6z"/>
</g>
<path id="XMLID_146_" class="st0" d="M195.2,16.9l-17.1,9.9v19.8l17.1,9.9l17.1-9.9V26.8L195.2,16.9z M197.2,39.9h4.2
	c0.3,0,0.6,0.3,0.6,0.6v3.6c0,0.3-0.3,0.6-0.6,0.6h-12.3c-0.3,0-0.6-0.3-0.6-0.6v-2.5c0-0.4,0.2-0.7,0.4-1l6.2-5.7
	c1.5-1.4,2.2-2.1,2.2-3.1c0-0.9-0.7-1.6-1.8-1.6c-1.2,0-2.1,0.7-2.1,2.1c0,0.4-0.1,0.5-0.4,0.5h-3.8c-0.3,0-0.4-0.1-0.4-0.5
	c0-4.6,3.6-6.7,6.8-6.7c3.5,0,6.5,2.3,6.5,6.2c0,3.1-2.3,5.1-3.8,6.6l-1.2,1.1C197,39.7,197.1,39.9,197.2,39.9z"/>
<g>
	<path class="st0" d="M115.9,80.9c1.1,0,1.5-0.4,1.5-1c0-1.8-4-0.8-4-3.9c0-1.7,1.1-2.6,3-2.6c0.8,0,1.5,0.2,2.1,0.5
		c0.3,0.4,0.4,1.1,0.3,1.7c-0.6-0.4-1.5-0.7-2.3-0.7c-0.9,0-1.3,0.3-1.3,0.9c0,1.7,4,0.8,4,3.9c0,2.1-1.5,2.8-3.3,2.8
		c-0.9,0-1.7-0.2-2.4-0.5c-0.3-0.5-0.4-1.2-0.3-1.7C113.8,80.6,115,80.9,115.9,80.9z"/>
	<path class="st0" d="M124.1,81.5c-0.3,0.5-0.8,1-1.9,1c-0.9,0-2-0.3-2-2.3v-3.7c0.4-0.2,1-0.4,1.7-0.4v3.7c0,0.6,0.2,1,0.9,1
		c0.6,0,0.9-0.2,1.2-0.5v-4c0.2-0.1,0.5-0.1,0.9-0.1s0.7,0.1,0.9,0.1V82c-0.3,0.2-0.8,0.3-1.4,0.3L124.1,81.5L124.1,81.5z"/>
	<path class="st0" d="M130.6,80.9c0.6,0,1.1-0.1,1.5-0.3c0.1,0.5-0.1,1.2-0.5,1.6c-0.4,0.2-0.9,0.3-1.6,0.3c-1.9,0-3-1.2-3-3.1
		c0-2.2,1.3-3.3,3.2-3.3c0.6,0,1.1,0.1,1.5,0.3c0.3,0.3,0.4,1.1,0.3,1.5c-0.4-0.3-0.8-0.4-1.4-0.4c-1.1,0-1.8,0.5-1.8,1.7
		C128.9,80.4,129.6,80.9,130.6,80.9z"/>
	<path class="st0" d="M136.6,80.9c0.6,0,1.1-0.1,1.5-0.3c0.1,0.5-0.1,1.2-0.5,1.6c-0.4,0.2-0.9,0.3-1.6,0.3c-1.9,0-3-1.2-3-3.1
		c0-2.2,1.3-3.3,3.2-3.3c0.6,0,1.1,0.1,1.5,0.3c0.3,0.3,0.4,1.1,0.3,1.5c-0.4-0.3-0.8-0.4-1.4-0.4c-1.1,0-1.8,0.5-1.8,1.7
		C134.8,80.4,135.5,80.9,136.6,80.9z"/>
	<path class="st0" d="M140.8,79.8c0.1,0.8,0.7,1.2,1.9,1.2c0.8,0,1.4-0.2,1.9-0.4c0,0.5-0.2,1-0.4,1.4c-0.4,0.2-1.1,0.4-1.9,0.4
		c-2.1,0-3.2-1.2-3.2-3.2s1.2-3.3,3.1-3.3c1.8,0,2.6,1.1,2.6,2.7c0,0.4-0.1,0.8-0.2,1.1L140.8,79.8L140.8,79.8z M143,78.5
		c0.1-0.6-0.1-1.2-1-1.2c-0.7,0-1.2,0.5-1.2,1.2H143z"/>
	<path class="st0" d="M147.3,79.8c0.1,0.8,0.7,1.2,1.9,1.2c0.8,0,1.4-0.2,1.9-0.4c0,0.5-0.2,1-0.4,1.4c-0.4,0.2-1.1,0.4-1.9,0.4
		c-2.1,0-3.2-1.2-3.2-3.2s1.2-3.3,3.1-3.3c1.8,0,2.6,1.1,2.6,2.7c0,0.4-0.1,0.8-0.2,1.1L147.3,79.8L147.3,79.8z M149.5,78.5
		c0.1-0.6-0.1-1.2-1-1.2c-0.7,0-1.2,0.5-1.2,1.2H149.5z"/>
	<path class="st0" d="M156.2,73.6c0.4-0.2,1-0.3,1.7-0.3v8.8c-0.3,0.2-0.8,0.3-1.3,0.3l-0.2-0.8h-0.1c-0.3,0.6-1,0.9-1.8,0.9
		c-1.6,0-2.4-1.2-2.4-3c0-2.2,1.2-3.5,3-3.5c0.4,0,0.8,0.1,1.1,0.2C156.2,76.2,156.2,73.6,156.2,73.6z M156.2,77.6
		c-0.2-0.1-0.5-0.2-0.8-0.2c-1.1,0-1.6,0.7-1.6,1.8c0,1.1,0.4,1.5,1.2,1.5c0.5,0,0.9-0.2,1.1-0.4v-2.7H156.2z"/>
	<path class="st0" d="M161.5,81.3c0,0.7-0.4,1.1-1,1.1c-0.7,0-1-0.4-1-1.1c0-0.6,0.4-1,1-1C161.1,80.3,161.5,80.7,161.5,81.3z"/>
	<path class="st0" d="M170.5,77.7c1,0.3,1.6,0.8,1.6,2c0,1.9-1.6,2.5-3.7,2.5c-1,0-2.2,0-3-0.1v-8.4c0.7-0.1,1.7-0.3,2.7-0.3
		c2.1,0,3.6,0.6,3.6,2.3C171.7,76.8,171.3,77.4,170.5,77.7L170.5,77.7z M167.3,77.1h1.2c0.9,0,1.4-0.3,1.4-1s-0.6-1-1.7-1
		c-0.4,0-0.7,0-0.9,0.1V77.1z M167.3,80.7c0.3,0,0.7,0.1,1.2,0.1c1.2,0,1.8-0.3,1.8-1.1s-0.7-1.1-1.8-1.1h-1.2V80.7z"/>
	<path class="st0" d="M177.3,81.5c-0.3,0.5-0.8,1-1.9,1c-0.9,0-2-0.3-2-2.3v-3.7c0.4-0.2,1-0.4,1.7-0.4v3.7c0,0.6,0.2,1,0.9,1
		c0.6,0,0.9-0.2,1.2-0.5v-4c0.2-0.1,0.5-0.1,0.9-0.1c0.4,0,0.7,0.1,0.9,0.1V82c-0.3,0.2-0.8,0.3-1.4,0.3L177.3,81.5L177.3,81.5z"/>
	<path class="st0" d="M182.6,74.1c0,0.7-0.4,1.1-1,1.1c-0.7,0-1.1-0.4-1.1-1.1c0-0.6,0.4-1,1.1-1C182.1,73.1,182.6,73.5,182.6,74.1z
		 M180.7,76.3c0.2-0.1,0.5-0.1,0.9-0.1c0.4,0,0.7,0.1,0.9,0.1v5.8c-0.2,0.1-0.4,0.1-0.9,0.1s-0.7-0.1-0.9-0.1V76.3z"/>
	<path class="st0" d="M185.6,82.4c-1.2,0-1.6-0.8-1.6-1.8v-7c0.4-0.2,1-0.3,1.7-0.3v7.1c0,0.5,0.2,0.6,0.5,0.6s0.5-0.1,0.7-0.2
		c0,0.5-0.1,1.2-0.3,1.5C186.4,82.3,186.1,82.4,185.6,82.4z"/>
	<path class="st0" d="M191.7,73.6c0.4-0.2,1-0.3,1.7-0.3v8.8c-0.3,0.2-0.8,0.3-1.3,0.3l-0.2-0.8h-0.1c-0.3,0.6-1,0.9-1.8,0.9
		c-1.6,0-2.4-1.2-2.4-3c0-2.2,1.2-3.5,3-3.5c0.4,0,0.8,0.1,1.1,0.2V73.6z M191.7,77.6c-0.2-0.1-0.5-0.2-0.8-0.2
		c-1.1,0-1.6,0.7-1.6,1.8c0,1.1,0.4,1.5,1.2,1.5c0.5,0,0.9-0.2,1.1-0.4v-2.7H191.7z"/>
	<path class="st0" d="M201.9,75c-1.7,0-2.9,0.9-2.9,3s1.2,2.9,2.8,2.9c0.8,0,1.5-0.2,2-0.4c0,0.4-0.2,1.2-0.5,1.6
		c-0.5,0.3-1.3,0.4-2.1,0.4c-2.6,0-4.1-1.7-4.1-4.4c0-3,1.8-4.7,4.4-4.7c0.7,0,1.4,0.1,1.8,0.4c0.3,0.4,0.4,1.1,0.3,1.6
		C203.1,75.1,202.6,75,201.9,75z"/>
	<path class="st0" d="M210.5,79.1c0,2.2-1.1,3.3-3,3.3c-1.9,0-3-1.1-3-3.3c0-2,1.2-3.1,3-3.1C209.3,76,210.5,77.1,210.5,79.1z
		 M207.5,81c0.8,0,1.2-0.7,1.2-1.9c0-1.1-0.4-1.7-1.2-1.7c-0.8,0-1.2,0.7-1.2,1.7C206.3,80.3,206.7,81,207.5,81z"/>
	<path class="st0" d="M213.6,82.1c-0.2,0.1-0.4,0.1-0.9,0.1c-0.4,0-0.7-0.1-0.9-0.1v-5.7c0.3-0.2,0.8-0.3,1.4-0.3l0.1,1h0.1
		c0.3-0.6,0.9-1.1,1.9-1.1c0.7,0,1.4,0.2,1.7,1h0.1c0.3-0.6,0.8-1,1.9-1c0.9,0,2,0.3,2,2.3v3.8c-0.2,0.1-0.4,0.1-0.9,0.1
		c-0.4,0-0.7-0.1-0.9-0.1v-3.5c0-0.6-0.2-1-0.9-1c-0.6,0-0.9,0.3-1.2,0.7c0,0.1,0,0.4,0,0.6v3.2c-0.2,0.1-0.4,0.1-0.9,0.1
		s-0.7-0.1-0.9-0.1v-3.5c0-0.6-0.2-1-0.9-1c-0.6,0-0.9,0.3-1.2,0.7v3.8H213.6z"/>
	<path class="st0" d="M224.5,82.1c-0.2,0.1-0.4,0.1-0.9,0.1c-0.4,0-0.7-0.1-0.9-0.1v-5.7c0.3-0.2,0.8-0.3,1.4-0.3l0.1,1h0.1
		c0.3-0.6,0.9-1.1,1.9-1.1c0.7,0,1.4,0.2,1.7,1h0.1c0.3-0.6,0.8-1,1.9-1c0.9,0,2,0.3,2,2.3v3.8c-0.2,0.1-0.4,0.1-0.9,0.1
		c-0.4,0-0.7-0.1-0.9-0.1v-3.5c0-0.6-0.2-1-0.9-1c-0.6,0-0.9,0.3-1.2,0.7c0,0.1,0,0.4,0,0.6v3.2c-0.2,0.1-0.4,0.1-0.9,0.1
		s-0.7-0.1-0.9-0.1v-3.5c0-0.6-0.2-1-0.9-1c-0.6,0-0.9,0.3-1.2,0.7v3.8H224.5z"/>
	<path class="st0" d="M237.4,81.5c-0.3,0.5-0.8,1-1.9,1c-0.9,0-2-0.3-2-2.3v-3.7c0.4-0.2,1-0.4,1.7-0.4v3.7c0,0.6,0.2,1,0.9,1
		c0.6,0,0.9-0.2,1.2-0.5v-4c0.2-0.1,0.5-0.1,0.9-0.1c0.4,0,0.7,0.1,0.9,0.1V82c-0.3,0.2-0.8,0.3-1.4,0.3L237.4,81.5L237.4,81.5z"/>
	<path class="st0" d="M242.5,82.1c-0.2,0.1-0.4,0.1-0.9,0.1c-0.4,0-0.7-0.1-0.9-0.1v-5.7c0.3-0.2,0.8-0.3,1.4-0.3l0.1,1h0.1
		c0.3-0.6,0.9-1.1,2-1.1c0.9,0,2,0.3,2,2.3v3.8c-0.2,0.1-0.4,0.1-0.9,0.1s-0.7-0.1-0.9-0.1v-3.5c0-0.6-0.2-1-0.9-1
		c-0.6,0-1,0.3-1.2,0.7v3.8H242.5z"/>
	<path class="st0" d="M249.9,74.1c0,0.7-0.4,1.1-1,1.1c-0.7,0-1.1-0.4-1.1-1.1c0-0.6,0.4-1,1.1-1C249.5,73.1,249.9,73.5,249.9,74.1z
		 M248,76.3c0.2-0.1,0.5-0.1,0.9-0.1s0.7,0.1,0.9,0.1v5.8c-0.2,0.1-0.4,0.1-0.9,0.1c-0.4,0-0.7-0.1-0.9-0.1V76.3z"/>
	<path class="st0" d="M255,76.2c0.1,0.1,0.1,0.4,0.1,0.7s0,0.6-0.1,0.7h-1.6v2.3c0,0.6,0.2,0.9,0.8,0.9c0.4,0,0.7-0.1,1.1-0.3
		c0.1,0.5-0.1,1.2-0.4,1.5s-0.8,0.4-1.4,0.4c-1.5,0-1.9-0.9-1.9-2.2v-2.5h-0.9c0-0.5,0.1-1.1,0.2-1.5h0.7v-1.3
		c0.4-0.3,1.1-0.5,1.7-0.5v1.8H255z"/>
	<path class="st0" d="M258.9,81c0.1-0.6,0.2-1.3,0.3-1.7l0.9-3c0.1,0,0.3-0.1,0.7-0.1c0.5,0,0.8,0.1,1,0.2l-0.9,2.7
		c-0.4,1.4-0.9,2.7-1.5,3.7c-0.7,1.1-1.6,1.9-3,2.3c-0.4-0.3-0.7-0.9-0.8-1.5c1-0.3,1.6-0.8,2.1-1.4l-2.2-5.9
		c0.2-0.1,0.6-0.2,1.1-0.2c0.4,0,0.6,0.1,0.7,0.1l1.1,3.1C258.6,79.7,258.7,80.4,258.9,81L258.9,81z"/>
	<path class="st0" d="M263.7,81.3c0,0.7-0.4,1.1-1,1.1c-0.7,0-1-0.4-1-1.1c0-0.6,0.4-1,1-1C263.3,80.3,263.7,80.7,263.7,81.3z"/>
	<path class="st0" d="M272.8,77.7c1,0.3,1.6,0.8,1.6,2c0,1.9-1.6,2.5-3.7,2.5c-1,0-2.2,0-3-0.1v-8.4c0.7-0.1,1.7-0.3,2.7-0.3
		c2.1,0,3.5,0.6,3.5,2.3C273.9,76.8,273.5,77.4,272.8,77.7L272.8,77.7z M269.5,77.1h1.2c0.9,0,1.4-0.3,1.4-1s-0.6-1-1.7-1
		c-0.4,0-0.7,0-0.9,0.1V77.1z M269.5,80.7c0.3,0,0.7,0.1,1.2,0.1c1.2,0,1.8-0.3,1.8-1.1s-0.7-1.1-1.8-1.1h-1.2V80.7z"/>
	<path class="st0" d="M277.1,79.8c0.1,0.8,0.7,1.2,1.9,1.2c0.8,0,1.4-0.2,1.9-0.4c0,0.5-0.2,1-0.4,1.4c-0.4,0.2-1.1,0.4-1.9,0.4
		c-2.1,0-3.2-1.2-3.2-3.2s1.2-3.3,3.1-3.3c1.8,0,2.6,1.1,2.6,2.7c0,0.4-0.1,0.8-0.2,1.1L277.1,79.8L277.1,79.8z M279.3,78.5
		c0.1-0.6-0.1-1.2-1-1.2c-0.7,0-1.2,0.5-1.2,1.2H279.3z"/>
	<path class="st0" d="M284.8,73.6h5.4c0.1,0.1,0.1,0.5,0.1,0.8s0,0.6-0.1,0.8h-3.5v2.1h3.3c0.1,0.1,0.1,0.4,0.1,0.8
		c0,0.3,0,0.6-0.1,0.8h-3.3v3.2c-0.2,0.1-0.5,0.2-0.9,0.2s-0.7-0.1-0.9-0.2v-8.5H284.8z"/>
	<path class="st0" d="M294.3,76c0.2,0,0.4,0,0.6,0.1c0.2,0.3,0.3,0.6,0.3,1.1c0,0.3,0,0.6-0.1,0.7c-0.2-0.1-0.5-0.2-0.8-0.2
		c-0.6,0-1.1,0.4-1.3,1V82c-0.2,0.1-0.4,0.1-0.9,0.1c-0.4,0-0.7-0.1-0.9-0.1v-5.7c0.3-0.2,0.8-0.3,1.4-0.3l0.1,1.1h0.1
		C292.9,76.5,293.3,76,294.3,76z"/>
	<path class="st0" d="M297.2,79.8c0.1,0.8,0.7,1.2,1.9,1.2c0.8,0,1.4-0.2,1.9-0.4c0,0.5-0.2,1-0.4,1.4c-0.4,0.2-1.1,0.4-1.9,0.4
		c-2.1,0-3.2-1.2-3.2-3.2s1.2-3.3,3.1-3.3c1.8,0,2.6,1.1,2.6,2.7c0,0.4-0.1,0.8-0.2,1.1L297.2,79.8L297.2,79.8z M299.4,78.5
		c0.1-0.6-0.1-1.2-1-1.2c-0.7,0-1.2,0.5-1.2,1.2H299.4z"/>
	<path class="st0" d="M303.8,79.8c0.1,0.8,0.7,1.2,1.9,1.2c0.8,0,1.4-0.2,1.9-0.4c0,0.5-0.2,1-0.4,1.4c-0.4,0.2-1.1,0.4-1.9,0.4
		c-2.1,0-3.2-1.2-3.2-3.2s1.2-3.3,3.1-3.3c1.8,0,2.6,1.1,2.6,2.7c0,0.4-0.1,0.8-0.2,1.1L303.8,79.8L303.8,79.8z M306,78.5
		c0.1-0.6-0.1-1.2-1-1.2c-0.7,0-1.2,0.5-1.2,1.2H306z"/>
	<path class="st0" d="M310.8,81.3c0,0.7-0.4,1.1-1,1.1c-0.7,0-1-0.4-1-1.1c0-0.6,0.4-1,1-1S310.8,80.7,310.8,81.3z"/>
</g>
<g>
	<path class="st0" d="M351,25.7c0.9,0.3,1.5,0.8,1.5,1.8c0,1.7-1.5,2.3-3.4,2.3c-1,0-2,0-2.7-0.1v-7.6c0.7-0.1,1.5-0.2,2.4-0.2
		c1.9,0,3.2,0.6,3.2,2.1C352.1,24.8,351.7,25.4,351,25.7L351,25.7z M348.1,25.1h1.1c0.8,0,1.3-0.3,1.3-0.9c0-0.7-0.6-1-1.5-1
		c-0.3,0-0.6,0-0.9,0.1V25.1z M348.1,28.4c0.3,0,0.7,0.1,1.1,0.1c1.1,0,1.7-0.3,1.7-1s-0.6-1-1.7-1h-1.1V28.4z"/>
	<path class="st0" d="M359.6,22c0.1,0.1,0.1,0.4,0.1,0.7c0,0.3,0,0.6-0.1,0.7h-3.5v1.8h3.2c0.1,0.1,0.1,0.4,0.1,0.7
		c0,0.3,0,0.5-0.1,0.7h-3.2v1.8h3.6c0.1,0.1,0.1,0.4,0.1,0.7s0,0.6-0.1,0.7h-5.2V22H359.6z"/>
	<path class="st0" d="M365.2,23.4v6.2c-0.2,0.1-0.4,0.1-0.8,0.1c-0.4,0-0.7-0.1-0.8-0.1v-6.2h-2.2c-0.1-0.1-0.1-0.4-0.1-0.7
		s0.1-0.6,0.1-0.7h6c0.1,0.1,0.1,0.4,0.1,0.7s-0.1,0.6-0.1,0.7H365.2z"/>
	<path class="st0" d="M372.8,27.9H370l-0.5,1.7c-0.2,0.1-0.5,0.2-0.9,0.2c-0.4,0-0.7-0.1-0.8-0.2l2.6-7.6c0.2-0.1,0.6-0.1,1-0.1
		c0.4,0,0.8,0,1,0.1l2.6,7.6c-0.2,0.1-0.4,0.2-0.9,0.2s-0.7-0.1-0.9-0.2L372.8,27.9z M372.4,26.6l-0.4-1.3c-0.2-0.7-0.4-1.5-0.5-2.2
		h-0.1c-0.1,0.8-0.3,1.6-0.5,2.3l-0.4,1.3H372.4z"/>
</g>
</svg>
